<?xml version="1.0" standalone="no"?>
<!DOCTYPE svg PUBLIC "-//W3C//DTD SVG 20010904//EN"
 "http://www.w3.org/TR/2001/REC-SVG-20010904/DTD/svg10.dtd">
<svg version="1.0" xmlns="http://www.w3.org/2000/svg"
 width="6196.000000pt" height="6196.000000pt" viewBox="0 0 6196.000000 6196.000000"
 preserveAspectRatio="xMidYMid meet">

<g transform="translate(0.000000,6196.000000) scale(0.100000,-0.100000)"
fill="#964B00" stroke="none">
<path d="M30670 52173 c-1029 -13 -2170 -116 -3205 -289 -3542 -593 -6868
-2063 -9690 -4284 -1281 -1008 -2469 -2189 -3486 -3465 -2610 -3276 -4196
-7239 -4569 -11415 -22 -249 -43 -546 -62 -895 -18 -314 -18 -1677 0 -1995 77
-1395 243 -2582 537 -3850 45 -196 173 -697 218 -855 32 -109 33 -121 18 -132
-38 -29 -41 -36 -41 -92 0 -311 380 -1478 777 -2386 222 -507 318 -635 593
-788 154 -85 375 -163 1260 -446 1943 -619 3990 -1494 5533 -2365 244 -138
434 -251 717 -426 487 -302 901 -510 1016 -510 130 0 620 331 1319 890 566
453 1035 801 1415 1052 264 174 430 376 430 521 -1 344 -1469 1162 -3738 2083
-1587 645 -3325 1227 -4872 1634 -1450 381 -3060 727 -3743 806 -46 6 -61 11
-68 28 -5 12 -38 126 -74 254 -614 2209 -859 4485 -730 6762 209 3674 1389
7227 3420 10295 2345 3542 5726 6287 9670 7850 3271 1296 6794 1741 10285
1299 5016 -634 9652 -3095 12991 -6894 2082 -2370 3598 -5180 4434 -8218 663
-2411 886 -4946 654 -7432 -119 -1275 -385 -2690 -720 -3822 l-20 -68 -1692 0
c-1601 0 -2182 -6 -2937 -30 -5365 -170 -10571 -997 -15083 -2396 -3175 -985
-5933 -2248 -8032 -3678 -2197 -1497 -3737 -3306 -4264 -5007 -28 -90 -54
-189 -59 -219 l-8 -55 53 -65 c158 -199 700 -586 1333 -955 656 -381 1337
-719 1666 -825 169 -54 262 -33 425 98 195 157 382 383 704 852 432 631 801
1075 1340 1615 1118 1120 2594 2161 4510 3180 270 143 1122 566 1420 705 1988
926 3942 1643 6155 2260 2251 627 6171 1347 9085 1669 695 77 1259 130 2630
246 490 42 1178 100 1530 130 352 30 735 61 850 70 248 20 254 21 262 43 3 9
84 205 180 436 244 590 320 801 403 1121 62 239 71 302 79 535 3 118 9 220 13
225 4 6 36 120 73 252 366 1344 606 2771 699 4163 37 540 41 695 41 1435 0
853 -17 1267 -80 1955 -528 5729 -3333 10987 -7795 14616 -1640 1334 -3485
2424 -5450 3219 -2221 899 -4549 1412 -6965 1535 -217 11 -1031 31 -1120 27
-27 -1 -133 -3 -235 -4z m-19328 -27664 l89 -12 30 -59 c16 -32 46 -84 66
-115 49 -77 93 -177 93 -212 0 -16 -7 -34 -16 -42 -38 -31 -74 -145 -74 -232
0 -93 29 -140 115 -185 43 -23 62 -27 135 -27 79 0 91 3 170 41 211 101 299
264 226 419 -49 106 -167 170 -269 146 -116 -26 -139 -13 -236 134 -43 63 -56
91 -46 93 27 6 1329 -264 1612 -335 23 -5 23 -6 25 -246 l3 -241 265 -208
c146 -114 302 -243 347 -285 98 -94 107 -118 91 -232 -14 -106 -2 -146 63
-205 68 -61 140 -87 260 -94 173 -9 290 47 339 159 32 75 26 188 -12 246 -70
107 -284 176 -413 133 -81 -27 -160 20 -550 330 l-245 195 0 203 c0 111 4 202
9 202 5 0 213 -51 462 -114 1062 -267 2056 -557 3149 -918 396 -131 1069 -364
1079 -373 2 -3 -7 -18 -21 -33 -50 -54 -114 -160 -221 -366 -174 -338 -200
-369 -319 -381 -83 -9 -156 -50 -195 -108 -77 -114 -72 -255 14 -419 69 -132
134 -170 256 -149 213 35 282 183 213 455 -26 99 -27 113 -16 169 13 67 64
188 198 472 75 159 117 259 138 333 3 9 12 9 41 -2 21 -8 198 -74 393 -147
195 -72 366 -137 380 -144 l25 -13 -7 -168 c-4 -93 -13 -189 -21 -214 -11 -41
-17 -46 -57 -59 -53 -17 -165 -124 -195 -186 -38 -79 -17 -169 58 -246 63 -65
164 -99 296 -99 151 0 249 43 306 134 24 40 30 62 33 122 7 129 -52 216 -174
259 -89 31 -97 52 -102 247 -3 87 -1 158 3 158 11 0 528 -209 780 -315 127
-54 236 -99 243 -102 9 -4 12 -77 12 -317 l0 -312 -245 -194 c-276 -219 -412
-315 -467 -332 -29 -9 -51 -8 -92 2 -154 37 -357 -37 -418 -153 -35 -65 -32
-175 7 -245 45 -82 120 -127 237 -142 133 -16 270 19 351 90 63 55 71 79 63
202 -6 96 -4 112 13 147 28 54 112 128 422 371 l269 211 0 300 0 300 21 -6
c71 -23 651 -296 979 -461 799 -402 1221 -637 1350 -752 70 -63 90 -96 90
-150 0 -68 -40 -108 -292 -290 -244 -178 -578 -437 -1082 -841 -796 -639
-1044 -831 -1074 -831 -25 0 -519 272 -1232 680 -288 164 -625 348 -770 420
l-86 42 4 157 c5 251 17 282 116 315 69 23 114 61 142 120 63 135 -4 306 -145
369 -58 26 -183 34 -260 17 -162 -36 -290 -148 -291 -255 0 -44 41 -123 93
-181 39 -43 69 -63 157 -104 8 -4 20 -27 27 -51 16 -54 30 -309 17 -309 -5 0
-97 43 -204 96 -397 195 -919 436 -1399 645 -152 67 -279 124 -283 128 -9 8
189 618 220 678 34 65 78 110 153 154 134 80 197 154 219 256 15 69 -5 141
-60 214 -77 103 -143 120 -289 74 -187 -59 -301 -185 -301 -333 0 -78 15 -114
73 -180 29 -32 49 -65 53 -88 9 -47 -14 -159 -72 -360 -25 -87 -57 -206 -70
-263 -12 -57 -25 -105 -27 -107 -2 -3 -76 26 -163 63 -87 37 -384 157 -659
268 -392 157 -500 205 -499 218 0 9 1 140 2 291 l2 274 233 185 c386 307 459
353 531 343 117 -18 175 -18 232 -1 170 49 244 129 244 262 0 114 -53 199
-150 242 -184 81 -452 16 -521 -126 -21 -44 -22 -51 -11 -137 20 -159 15 -165
-451 -529 l-258 -202 3 -283 c2 -155 2 -282 1 -282 -1 0 -118 43 -260 96 -432
160 -684 248 -1263 441 -305 101 -561 187 -567 191 -9 6 -7 23 8 72 11 36 34
121 51 190 64 265 101 375 141 418 12 13 49 38 82 55 78 42 140 104 173 175
21 46 26 72 27 137 0 70 -4 87 -29 133 -69 124 -212 156 -362 82 -145 -71
-254 -218 -254 -342 0 -70 13 -98 75 -158 81 -78 92 -121 70 -260 -13 -76 -59
-295 -90 -427 -3 -13 -11 -23 -18 -23 -6 0 -68 27 -137 61 -452 219 -667 491
-953 1209 -85 213 -262 697 -330 900 -77 231 -71 316 26 361 50 22 189 26 329
8z m636 -433 c61 -32 89 -93 71 -159 -13 -49 -81 -124 -134 -148 -80 -37 -178
-17 -215 43 -55 90 7 218 130 267 37 15 117 13 148 -3z m829 -1032 c91 -69 83
-187 -16 -260 -87 -63 -187 -71 -242 -18 -60 58 -59 133 4 215 66 87 184 116
254 63z m1613 -39 c101 -35 104 -187 4 -255 -48 -32 -146 -40 -208 -16 -99 38
-143 134 -94 205 54 81 177 108 298 66z m1353 -357 c47 -26 87 -91 87 -143 0
-86 -67 -133 -191 -134 -120 -1 -209 64 -209 153 0 34 7 46 49 87 28 27 64 51
87 57 54 15 128 7 177 -20z m824 -885 c62 -69 57 -149 -15 -223 -69 -70 -148
-88 -226 -50 -54 26 -86 74 -86 129 0 37 6 48 48 89 53 54 127 107 157 114 32
7 87 -19 122 -59z m2559 8 c76 -35 116 -101 100 -166 -10 -39 -63 -92 -111
-111 -60 -22 -160 -15 -209 15 -117 73 -92 231 43 271 48 15 134 10 177 -9z
m-1529 -32 c71 -27 123 -108 123 -194 0 -109 -57 -169 -162 -170 -102 0 -135
47 -144 205 -6 98 3 123 56 151 39 21 85 24 127 8z m1725 -1159 c45 -13 93
-52 114 -92 20 -39 11 -88 -23 -128 -94 -112 -288 -97 -352 27 -20 39 -14 119
12 148 42 48 159 70 249 45z m-1091 -120 c139 -72 104 -245 -58 -281 -82 -19
-156 1 -210 56 -38 37 -43 48 -43 87 0 131 173 208 311 138z"/>
<path d="M21195 20989 c-77 -10 -134 -31 -190 -69 -102 -70 -124 -139 -81
-253 33 -85 33 -126 3 -159 -13 -14 -66 -53 -118 -88 -109 -74 -190 -134 -424
-318 l-170 -134 -5 -226 c-7 -275 -11 -288 -90 -315 -36 -13 -70 -35 -105 -70
-96 -97 -119 -195 -70 -294 29 -58 69 -92 153 -131 54 -25 66 -27 197 -27 156
1 187 9 242 67 99 104 109 253 24 349 -20 23 -63 56 -96 74 -97 52 -100 60
-103 320 l-2 220 231 180 c406 316 422 325 618 336 143 7 170 13 239 48 95 48
162 141 162 225 0 132 -112 245 -257 262 -26 3 -59 6 -73 8 -14 1 -52 -1 -85
-5z m155 -131 c119 -60 129 -199 19 -256 -37 -19 -56 -23 -119 -20 -121 5
-200 63 -200 146 0 116 176 192 300 130z m-993 -1555 c45 -21 91 -75 99 -118
18 -98 -58 -165 -186 -165 -73 0 -121 19 -167 65 -37 36 -43 48 -43 83 0 32 7
49 31 77 68 77 174 100 266 58z"/>
<path d="M30540 43583 c-230 -3 -647 -22 -880 -38 -3498 -251 -6732 -1583
-9309 -3833 -587 -512 -786 -764 -866 -1095 -92 -377 -30 -869 156 -1245 51
-103 74 -136 142 -209 152 -160 312 -259 503 -310 136 -36 356 -38 514 -4 389
82 855 324 1387 719 87 65 256 195 374 288 261 206 513 395 715 537 1834 1286
3779 2013 6049 2261 1000 110 2131 121 3105 30 1399 -129 2645 -449 3895 -999
184 -81 609 -290 810 -397 727 -391 1438 -862 2161 -1434 685 -542 1111 -802
1544 -944 201 -66 312 -85 490 -84 210 1 358 43 515 146 189 123 432 428 560
701 306 656 -6 1275 -1095 2173 -195 161 -376 302 -610 476 -2581 1915 -5667
3038 -8881 3233 -252 15 -946 36 -1064 33 -33 -2 -130 -4 -215 -5z"/>
<path d="M30260 38749 c-913 -37 -1691 -134 -2270 -285 -2174 -564 -4846
-2285 -5384 -3467 -67 -147 -88 -230 -93 -372 -6 -146 12 -257 69 -434 79
-247 187 -436 340 -596 252 -263 516 -385 832 -385 238 0 458 60 737 200 249
125 436 252 811 552 312 250 520 404 781 577 1245 830 2602 1325 4029 1470
572 59 1227 53 1808 -14 912 -105 1883 -386 2700 -781 440 -213 1081 -630
1795 -1169 328 -247 475 -349 680 -472 502 -302 903 -412 1252 -344 241 47
432 159 643 377 185 192 285 356 347 574 34 117 42 325 19 460 -114 650 -797
1399 -2011 2205 -1160 770 -2650 1446 -3700 1679 -533 118 -1213 194 -2025
226 -281 11 -1072 11 -1360 -1z"/>
<path d="M30237 34029 c-734 -35 -1181 -176 -2237 -704 -295 -147 -429 -220
-649 -352 -771 -463 -1288 -952 -1515 -1433 -165 -351 -176 -688 -32 -1004 73
-160 225 -361 373 -492 479 -426 803 -534 1186 -397 187 66 457 233 737 454
470 372 767 569 1140 758 590 300 1113 434 1690 434 563 0 1092 -133 1659
-418 378 -189 659 -376 1211 -805 329 -256 555 -386 786 -452 114 -32 306 -32
419 0 218 62 500 250 756 504 387 383 489 760 319 1186 -124 310 -418 687
-850 1088 -1089 1011 -2190 1492 -3695 1613 -358 29 -923 38 -1298 20z"/>
<path d="M30685 29145 c-315 -56 -632 -221 -887 -464 -421 -400 -602 -1015
-472 -1600 76 -340 222 -602 466 -837 118 -114 244 -202 398 -279 492 -246
743 -271 1145 -114 156 61 452 212 570 291 417 279 678 700 714 1153 38 474
-150 940 -533 1320 -272 271 -543 432 -859 511 -86 22 -130 26 -282 30 -126 2
-204 -1 -260 -11z"/>
<path d="M16712 25159 c-245 -13 -342 -55 -342 -144 0 -101 151 -227 435 -365
200 -97 327 -145 790 -298 1485 -489 2947 -1095 4385 -1818 495 -249 750 -386
1265 -681 704 -402 1217 -677 1377 -738 46 -17 47 -17 130 10 224 75 793 325
1598 705 954 450 1639 744 1945 835 131 39 219 88 296 165 99 98 131 197 90
285 -81 178 -488 325 -1686 610 -2933 699 -7026 1329 -9325 1435 -242 11 -757
11 -958 -1z"/>
<path d="M48970 21493 c-30 -1 -154 -7 -275 -13 -1498 -73 -4106 -360 -6175
-681 -6181 -958 -11343 -2722 -14960 -5114 -1098 -726 -2013 -1479 -2829
-2328 -901 -937 -1360 -1593 -1388 -1982 -11 -158 44 -254 182 -320 288 -136
1436 -509 2260 -734 1079 -294 1472 -281 2009 69 235 153 394 284 886 730 261
237 408 366 605 531 3324 2783 8451 4940 14783 6219 744 151 1413 273 2217
405 1567 257 1855 321 2154 475 127 66 206 127 327 252 472 490 1110 1549
1279 2123 17 58 29 125 32 187 5 92 5 97 -19 121 -52 52 -212 67 -673 65 -198
-1 -385 -3 -415 -5z m428 -432 c72 -10 78 -19 64 -83 -28 -119 -144 -351 -331
-663 -68 -114 -810 -1243 -836 -1273 -4 -4 -70 -15 -895 -142 -1417 -220
-2293 -373 -3363 -590 -192 -38 -351 -70 -355 -70 -3 0 26 22 66 49 39 27 153
112 254 188 212 162 258 193 330 231 51 26 59 27 208 28 135 0 162 3 211 22
60 24 118 73 146 125 27 49 25 219 -3 267 -43 73 -155 119 -309 127 -131 7
-196 -15 -271 -91 -64 -65 -79 -114 -69 -223 10 -120 12 -118 -391 -452 -141
-116 -243 -223 -251 -263 -5 -23 -12 -29 -57 -38 -28 -6 -213 -46 -410 -89
l-359 -78 -76 67 c-42 36 -148 125 -236 197 -286 233 -312 268 -296 397 5 42
6 91 1 110 -44 196 -451 264 -613 102 -101 -101 -101 -234 0 -346 87 -96 198
-132 333 -106 68 13 87 13 125 2 55 -17 151 -80 313 -208 70 -55 173 -130 229
-166 56 -37 102 -69 102 -72 1 -3 -142 -38 -317 -78 -532 -124 -1121 -271
-1675 -419 -136 -36 -249 -64 -250 -62 -8 11 14 340 25 378 12 39 18 45 65 62
59 23 139 96 180 166 48 83 30 176 -50 261 -67 70 -188 107 -327 99 -201 -11
-310 -106 -310 -269 0 -79 14 -119 60 -172 33 -37 96 -76 124 -76 9 0 29 -12
46 -27 38 -35 50 -94 50 -257 1 -66 4 -139 9 -161 l8 -41 -415 -118 c-406
-116 -1019 -300 -1297 -390 -76 -25 -140 -44 -140 -43 0 1 1 153 3 337 l4 335
220 175 c398 316 483 371 556 354 20 -5 80 -8 132 -9 86 0 101 3 160 31 81 38
125 75 151 126 67 131 5 297 -134 359 -46 21 -67 24 -177 24 -144 -1 -206 -19
-279 -81 -71 -61 -81 -97 -67 -240 13 -126 -9 -151 -434 -485 l-271 -213 3
-361 c2 -198 7 -367 11 -375 6 -12 -37 -30 -230 -94 -1594 -527 -3086 -1126
-4397 -1765 -148 -72 -271 -131 -274 -131 -2 0 -2 71 0 158 6 202 14 222 95
252 86 32 125 61 156 119 74 135 4 314 -148 383 -70 31 -213 31 -304 -1 -132
-46 -221 -130 -236 -223 -6 -32 -2 -51 24 -103 38 -77 132 -169 192 -186 22
-7 44 -21 50 -30 14 -27 27 -155 32 -306 l5 -133 -212 -109 c-116 -60 -258
-134 -315 -165 -58 -31 -109 -56 -114 -56 -5 0 -41 28 -81 63 -39 35 -118 101
-176 147 -128 103 -224 193 -251 237 -18 28 -20 42 -14 110 5 48 3 94 -4 119
-38 142 -206 226 -389 195 -153 -26 -251 -83 -272 -159 -13 -50 -13 -156 2
-204 17 -56 78 -121 140 -149 47 -20 74 -24 223 -29 153 -5 174 -8 215 -29 82
-43 206 -132 438 -314 l62 -49 -193 -107 c-500 -279 -1103 -642 -1468 -884
l-25 -17 -54 78 c-29 42 -104 142 -165 222 -152 198 -211 281 -248 353 -32 62
-32 62 -29 198 2 113 -1 146 -18 201 -39 125 -129 194 -255 192 -160 -2 -211
-45 -256 -221 -70 -276 79 -497 306 -454 94 18 155 -32 365 -294 58 -71 144
-171 192 -221 48 -50 88 -94 88 -97 0 -3 -98 -72 -217 -153 -325 -219 -765
-538 -1022 -740 -31 -24 -58 -44 -61 -44 -3 0 -2 71 2 157 6 160 20 230 48
243 8 4 32 15 52 23 73 32 165 138 188 218 17 60 -12 132 -79 200 -49 49 -69
61 -130 79 -60 19 -89 21 -184 18 -134 -5 -195 -27 -255 -92 -48 -53 -66 -103
-65 -181 1 -115 64 -199 180 -239 86 -31 93 -49 102 -283 4 -113 12 -197 19
-210 11 -21 2 -30 -150 -155 -304 -248 -454 -379 -848 -737 -231 -211 -584
-523 -618 -547 -16 -11 -17 8 -14 331 l3 342 -272 214 c-438 343 -444 351
-433 504 6 90 5 97 -21 150 -72 148 -292 206 -478 126 -100 -44 -203 -146
-214 -215 -8 -53 35 -134 105 -196 93 -83 123 -93 298 -101 170 -7 204 -18
326 -100 67 -45 82 -57 366 -278 l182 -143 0 -297 c0 -254 6 -369 22 -430 5
-23 -324 -283 -432 -340 l-56 -30 -99 20 c-573 118 -2995 812 -3095 888 -37
28 -34 120 8 219 146 347 622 973 1222 1611 622 660 1651 1485 2705 2168 226
146 490 312 509 319 9 4 15 -10 19 -43 3 -26 31 -163 62 -303 55 -250 74 -391
61 -444 -3 -14 -35 -58 -70 -96 -82 -91 -95 -131 -72 -221 31 -118 127 -228
254 -291 57 -28 77 -33 142 -33 61 0 83 4 120 25 199 112 155 421 -77 539
-110 55 -123 83 -218 452 -35 136 -80 289 -100 340 -20 52 -38 101 -41 109 -5
17 -10 14 296 193 205 119 728 413 756 424 12 4 14 -26 14 -210 l0 -215 272
-213 c289 -227 400 -324 425 -372 10 -20 14 -51 12 -91 -8 -157 -5 -182 25
-221 66 -87 175 -130 326 -129 127 0 197 23 258 85 73 72 95 209 50 299 -57
112 -260 193 -399 159 -122 -29 -147 -15 -622 361 l-196 155 -1 240 0 240 43
23 c23 13 178 93 345 178 208 107 307 153 315 146 136 -107 378 -309 431 -360
95 -93 106 -120 99 -249 -6 -98 -5 -104 20 -141 57 -87 175 -136 327 -136 152
-1 250 45 307 141 37 63 39 165 6 228 -40 76 -135 149 -218 169 -44 11 -149 8
-197 -4 -83 -23 -151 14 -439 236 -85 66 -172 130 -192 143 -20 12 -37 26 -37
30 0 13 519 258 975 461 275 122 697 302 699 298 1 -2 -1 -68 -5 -148 -6 -157
-23 -220 -57 -220 -28 0 -102 -51 -150 -104 -52 -57 -81 -117 -82 -169 0 -48
37 -122 87 -169 141 -136 471 -125 580 19 107 143 37 359 -130 404 -52 14 -85
51 -91 102 -3 23 -7 110 -10 194 l-5 152 327 130 c580 230 1184 455 1621 602
l144 48 -7 -46 c-3 -25 -6 -164 -6 -308 l0 -262 -227 -180 c-397 -313 -469
-360 -533 -348 -104 18 -190 17 -257 -4 -150 -45 -225 -131 -224 -255 1 -185
132 -284 359 -274 120 6 192 32 261 94 65 59 77 99 63 205 -13 87 -6 124 33
174 32 43 150 142 410 345 116 90 223 175 239 189 l29 26 -6 346 -6 346 437
141 c1339 432 2543 763 3977 1092 404 93 676 152 680 148 7 -8 -14 -376 -23
-398 -13 -35 -27 -45 -95 -70 -113 -42 -167 -117 -167 -231 0 -112 67 -216
169 -263 62 -28 218 -30 306 -3 123 38 227 134 240 221 9 54 -22 127 -81 195
-42 49 -118 101 -146 101 -10 0 -24 10 -32 23 -19 28 -36 164 -36 287 0 52 -4
112 -9 133 -5 20 -6 37 -2 37 3 0 128 25 276 56 597 123 1687 328 1707 322 14
-5 -444 -345 -512 -380 -62 -33 -65 -33 -234 -38 -151 -5 -176 -9 -218 -29
-105 -51 -152 -130 -150 -253 1 -109 24 -157 93 -197 109 -62 288 -84 396 -47
62 21 136 83 166 140 18 35 21 55 20 145 -2 102 -2 104 29 148 33 45 120 123
308 273 58 47 149 128 203 181 l98 96 376 62 376 61 61 -58 c34 -32 148 -129
254 -216 229 -187 297 -252 318 -301 12 -28 13 -58 8 -134 -7 -109 0 -133 58
-190 44 -43 93 -68 175 -87 81 -19 204 -14 275 11 60 21 136 88 159 140 57
125 -15 285 -161 354 -57 27 -120 31 -290 20 -75 -5 -129 23 -321 172 -85 65
-216 160 -292 211 -75 51 -134 94 -130 95 23 7 741 112 1146 168 391 53 1117
145 1153 145 l27 0 -8 -161 c-8 -172 -21 -248 -45 -259 -86 -40 -118 -61 -159
-106 -58 -63 -91 -127 -91 -175 0 -19 12 -58 26 -87 57 -115 179 -177 349
-176 155 0 256 46 312 141 24 42 28 58 28 128 0 63 -5 89 -22 121 -30 57 -91
108 -146 124 -93 26 -102 51 -111 322 l-5 146 37 6 c91 14 1214 131 1458 151
l81 7 -8 -53 c-4 -30 -8 -190 -8 -355 l-1 -302 -237 -188 c-401 -318 -454
-351 -537 -338 -97 14 -207 8 -267 -15 -85 -32 -146 -77 -177 -130 -23 -39
-27 -57 -27 -121 1 -177 120 -275 335 -274 140 0 230 35 310 119 l35 36 0 133
c0 128 1 134 28 174 31 48 171 166 469 397 l207 160 0 325 c0 179 -4 350 -8
380 -5 30 -7 57 -5 59 9 10 887 79 1354 106 532 32 1010 43 1128 26z m-4161
-873 c59 -15 119 -72 129 -124 14 -76 -52 -152 -150 -174 -78 -17 -151 2 -203
55 -39 38 -43 47 -43 90 0 121 121 190 267 153z m-1490 -375 c65 -34 91 -121
59 -197 -21 -51 -91 -88 -165 -89 -70 0 -114 15 -159 57 -91 85 -45 200 98
247 38 13 127 3 167 -18z m-2716 -110 c87 -45 123 -137 83 -214 -21 -41 -69
-59 -175 -66 -111 -7 -144 5 -170 61 -75 166 92 305 262 219z m4936 -154 c28
-7 60 -26 83 -48 67 -63 65 -120 -4 -186 -42 -41 -99 -65 -152 -65 -78 0 -159
49 -184 110 -17 40 -8 125 15 150 38 42 154 61 242 39z m-6222 -280 c24 -7 57
-29 82 -54 38 -37 43 -48 43 -87 0 -60 -32 -106 -94 -137 -120 -60 -281 -4
-302 104 -9 48 1 78 37 119 50 57 145 79 234 55z m4982 -153 c47 -55 53 -158
12 -210 -29 -37 -98 -66 -158 -66 -133 0 -225 118 -181 234 18 49 115 78 240
71 55 -3 68 -7 87 -29z m-2777 -253 c119 -63 119 -186 0 -253 -37 -21 -59 -25
-122 -25 -83 0 -110 12 -152 69 -28 37 -28 125 0 163 54 74 180 95 274 46z
m-2504 -382 c57 -26 87 -72 92 -141 4 -49 1 -60 -23 -88 -32 -38 -82 -53 -171
-53 -160 0 -254 128 -169 230 58 68 182 92 271 52z m978 -172 c21 -6 57 -27
79 -48 33 -32 40 -45 44 -87 4 -40 0 -56 -19 -84 -72 -107 -284 -108 -355 -1
-85 127 76 269 251 220z m-6813 -1204 c139 -91 50 -264 -137 -265 -45 0 -72 6
-104 23 -103 54 -120 206 -29 253 75 38 204 33 270 -11z m-1272 -48 c33 -17
52 -35 70 -70 21 -43 23 -52 12 -87 -47 -156 -317 -172 -383 -22 -17 38 -19
51 -9 83 34 112 187 160 310 96z m-991 -794 c49 -37 67 -71 67 -128 0 -95 -70
-155 -181 -155 -222 0 -279 221 -77 296 52 20 157 12 191 -13z m2112 -610 c89
-47 115 -136 61 -211 -71 -100 -277 -96 -346 6 -98 144 113 295 285 205z
m-2820 -384 c66 -14 106 -48 115 -98 26 -152 -143 -251 -296 -173 -103 52
-129 139 -63 212 56 62 139 82 244 59z m1277 -93 c18 -9 40 -28 49 -41 23 -36
15 -122 -16 -165 -26 -37 -110 -80 -155 -80 -115 0 -207 89 -192 186 8 49 35
100 60 113 34 17 214 8 254 -13z m-3200 -467 c82 -30 153 -113 153 -179 0 -44
-37 -106 -78 -132 -71 -44 -191 -5 -249 81 -58 86 -52 173 16 218 37 25 109
31 158 12z m1446 -244 c18 -8 43 -31 55 -50 97 -141 -13 -341 -171 -311 -68
13 -97 76 -99 216 0 66 3 87 19 108 35 47 135 66 196 37z m-646 -1246 c77 -37
113 -122 79 -186 -48 -95 -181 -131 -292 -79 -124 58 -126 199 -5 263 59 31
156 32 218 2z m-2730 -755 c75 -43 112 -138 79 -202 -26 -51 -86 -76 -181 -76
-118 1 -156 25 -176 114 -12 50 7 109 47 146 60 57 150 64 231 18z"/>
<path d="M48085 20999 c-55 -13 -98 -45 -132 -98 -60 -92 -69 -172 -29 -256
28 -60 59 -90 134 -130 44 -23 62 -40 80 -75 21 -42 22 -56 22 -255 l-1 -210
-141 -110 c-506 -395 -503 -393 -720 -405 -122 -7 -144 -11 -200 -37 -84 -39
-136 -86 -164 -148 -58 -124 3 -263 145 -329 39 -18 65 -21 171 -21 137 0 187
13 267 67 100 67 122 138 79 252 -47 123 -38 144 99 236 111 74 231 164 435
324 l175 137 5 227 c7 275 11 288 90 315 65 23 145 100 178 169 65 140 -17
285 -190 340 -66 20 -230 24 -303 7z m293 -139 c86 -48 107 -131 50 -196 -44
-49 -99 -74 -171 -74 -187 0 -271 207 -114 281 59 28 176 22 235 -11z m-1025
-1541 c20 -5 55 -27 77 -48 35 -33 40 -44 40 -82 0 -179 -307 -220 -382 -52
-47 107 26 192 167 193 33 0 77 -5 98 -11z"/>
<path d="M37872 19165 c-71 -20 -106 -39 -159 -88 -80 -74 -89 -114 -48 -223
29 -76 32 -120 10 -151 -9 -12 -75 -63 -148 -113 -73 -49 -231 -167 -352 -263
l-220 -172 -6 -225 c-7 -270 -13 -295 -72 -311 -112 -30 -217 -163 -217 -274
0 -170 191 -281 438 -256 108 11 161 36 202 92 70 98 79 206 24 296 -27 44
-52 65 -156 128 -58 36 -63 57 -66 297 l-3 216 223 175 c414 323 420 327 606
338 191 12 252 32 340 112 85 78 105 177 56 275 -30 61 -69 96 -144 130 -69
32 -224 41 -308 17z m219 -123 c67 -35 105 -99 94 -158 -25 -136 -267 -165
-369 -44 -52 63 -26 154 58 197 80 41 145 43 217 5z m-995 -1551 c63 -29 99
-82 99 -147 0 -90 -62 -135 -187 -135 -187 -1 -277 156 -146 254 67 50 162 61
234 28z"/>
<path d="M35526 18009 c-97 -11 -149 -45 -195 -129 -31 -56 -36 -74 -36 -130
0 -105 45 -172 158 -232 92 -49 99 -72 105 -328 l4 -205 -254 -196 c-401 -310
-398 -309 -587 -320 -177 -11 -254 -36 -332 -106 -110 -99 -116 -230 -17 -338
70 -77 129 -99 273 -99 124 -1 181 14 260 66 105 70 126 140 80 264 -29 78
-31 111 -7 141 9 12 80 66 158 120 77 54 236 172 352 263 l212 165 0 180 c0
186 12 295 34 330 7 11 34 26 59 32 57 16 143 97 177 168 75 156 -41 320 -250
354 -72 12 -94 12 -194 0z m229 -139 c60 -25 95 -72 95 -126 0 -36 -6 -51 -35
-83 -104 -115 -314 -81 -356 58 -40 133 134 222 296 151z m-975 -1563 c60 -30
97 -99 81 -150 -22 -67 -115 -127 -195 -127 -112 0 -196 74 -196 174 0 38 5
51 35 80 59 59 182 70 275 23z"/>
<path d="M27535 14587 c-60 -24 -91 -46 -148 -106 -105 -110 -156 -261 -128
-379 16 -66 50 -96 141 -127 137 -47 142 -58 129 -257 -9 -149 -9 -441 0 -623
l6 -120 90 -68 c151 -115 244 -196 270 -236 25 -37 25 -39 9 -77 -23 -54 -15
-171 16 -241 69 -161 251 -184 414 -54 88 70 186 230 186 303 0 88 -67 200
-143 240 -63 34 -165 31 -234 -5 -100 -52 -135 -39 -356 127 l-148 111 4 395
c4 462 1 445 107 594 78 110 110 192 110 286 0 152 -93 251 -234 249 -34 0
-74 -6 -91 -12z m120 -157 c106 -51 98 -182 -18 -286 -62 -55 -116 -72 -171
-53 -59 21 -81 58 -80 132 0 74 27 133 79 174 67 54 126 64 190 33z m653
-1736 c32 -21 62 -73 62 -110 0 -46 -46 -129 -97 -174 -113 -99 -240 -66 -251
64 -13 160 165 298 286 220z"/>
<path d="M26390 13726 c-92 -32 -139 -59 -183 -101 -73 -71 -101 -158 -112
-344 l-8 -121 -466 -462 c-490 -485 -641 -627 -704 -659 -33 -17 -50 -19 -141
-13 -95 6 -108 5 -151 -16 -25 -12 -84 -58 -130 -102 -131 -124 -175 -234
-140 -353 33 -117 143 -184 282 -172 115 9 237 107 305 245 31 63 33 73 36
198 l4 132 391 389 c216 213 485 480 599 592 l207 205 108 -17 c161 -24 201
-10 316 112 85 90 130 181 130 259 0 86 -48 167 -131 222 -56 37 -117 39 -212
6z m123 -140 c48 -20 69 -50 75 -104 11 -114 -92 -224 -210 -224 -83 0 -130
52 -130 143 2 134 146 236 265 185z m-1764 -1710 c73 -38 116 -126 90 -188
-23 -55 -86 -125 -134 -148 -61 -29 -143 -25 -180 10 -84 79 -21 245 117 314
60 30 69 31 107 12z"/>
<path d="M12786 20260 c-162 -41 -173 -186 -36 -478 245 -520 1085 -1640 1990
-2656 759 -852 1808 -1879 2415 -2365 313 -251 519 -361 672 -361 141 1 218
73 289 273 79 221 337 667 757 1312 416 636 618 1100 543 1243 -64 121 -441
375 -1066 719 -628 346 -1670 858 -2520 1238 -102 46 -304 138 -450 205 -955
441 -1398 611 -2040 784 -322 86 -464 108 -554 86z"/>
<path d="M46620 17303 c-803 -47 -3028 -478 -5002 -969 -1414 -352 -2592 -709
-4148 -1261 -1524 -540 -2912 -1155 -4165 -1846 -290 -160 -541 -306 -874
-509 -161 -99 -379 -232 -485 -295 -1372 -830 -2367 -1598 -2697 -2085 -163
-240 -139 -422 65 -487 176 -56 324 -65 1031 -58 325 3 703 11 840 16 138 6
369 15 515 21 1133 45 2361 167 3365 336 3069 516 5930 1723 8435 3557 1004
736 2275 1832 3103 2677 412 420 617 675 617 767 0 111 -212 159 -600 136z"/>
</g>
</svg>
